<svg width="283" height="322" viewBox="0 0 283 322" fill="none" xmlns="http://www.w3.org/2000/svg">
<path d="M2 31C7.04437 31 14.6478 29.2333 17.8889 34.5C19.9698 37.8815 22.2203 41.5479 23.2222 45.4444C25.7284 55.1907 26.2696 66.7514 23.5556 76.4444C19.9807 89.2116 21 102.214 21 115.444C21 128.11 28.2449 139.573 38.4444 147.222C57.7527 161.703 78.2571 164.779 102.111 165C106.284 165.039 110.895 166.499 115 165.556C123.37 163.633 131.746 158.744 138.778 154.056C145.194 149.778 152.894 145.322 157 138.556C160.434 132.895 161.391 126.353 162.5 119.944C165.378 103.315 162.8 90.5792 149.889 78.5555C137.975 67.4605 118.637 59.9948 102.222 63.3333C88.2704 66.171 71.2373 79.3325 67.4444 93.5555C64.6025 104.213 68.0494 115.378 70.7778 125.444C73.9447 137.129 79.8506 147.513 83.3889 158.944C87.1589 171.124 90.6811 184.167 91.7778 196.889C92.5862 206.267 93.1236 216.531 88.8333 225.111C85 232.778 79.0417 243 69.3889 243C61.0033 243 54.5164 242.977 47.4444 238C38.0046 231.357 35.6856 218.673 36.0556 207.944C36.4015 197.913 39.4576 190.199 49.6667 187.444C55.1371 185.968 62.1062 187 67.6667 187C77.5406 187 84.9941 187.805 94.1111 191.778C111.117 199.188 126.102 210.143 142.611 218.5C153.37 223.946 164.709 225.808 176.222 229C187.714 232.186 199.026 234.217 211 232.333C227.408 229.752 248.315 219.4 253.833 202.5C261.514 178.978 230.713 167.318 214.111 160.167C194.677 151.795 173.438 145.053 156.444 132C147.988 125.505 143.834 117.389 144 106.778C144.192 94.5194 155.482 87.9513 166 84.0555C182.367 77.9938 198.85 72.7916 214.333 64.5556C228.23 57.1637 242.976 39.5832 240.889 22.8889C239.548 12.1587 226.296 7.40767 217.444 5C202.455 0.922786 180.049 0.0971947 167 9.66666C157.763 16.4406 153.52 25.2223 153.056 36.6111C152.516 49.8399 151.771 64.2425 158 76.3333C165.235 90.3783 172.203 104.582 181 117.778C189.914 131.149 200.364 144.068 207 158.833C214.692 175.948 233.516 209.783 220 228.556C204.272 250.4 178.866 252.149 155.444 260.778C141.309 265.986 126.503 265.152 112 268.778C104.32 270.698 104 277.394 104 284.056C104 299.751 122.906 311.719 136.111 315.944C149.672 320.284 166.389 321.01 180.556 319.778C191.236 318.849 204.138 316.182 211.667 307.667C216.678 301.998 219 295.921 219 288.389C219 277.462 215.681 273.579 207.667 265.667C190.798 249.011 166.503 240.332 147.111 227C139.97 222.091 137.042 210.038 138.222 201.778C139.618 192.01 149.409 192.13 157.056 190.556C168.894 188.118 180.58 188.57 192.556 187.778C204.319 187 215.846 185.506 227.556 184C233.597 183.223 239.569 182.261 245.333 180.222C250.496 178.396 254.596 174.493 259.444 172C266.3 168.474 273.835 163.108 277.389 156C281.954 146.869 281 135.876 281 126" stroke="#EF2F2F" stroke-width="3" stroke-linecap="round"/>
<path d="M2 31C7.04437 31 14.6478 29.2333 17.8889 34.5C19.9698 37.8815 22.2203 41.5479 23.2222 45.4444C25.7284 55.1907 26.2696 66.7514 23.5556 76.4444C19.9807 89.2116 21 102.214 21 115.444C21 128.11 28.2449 139.573 38.4444 147.222C57.7527 161.703 78.2571 164.779 102.111 165C106.284 165.039 110.895 166.499 115 165.556C123.37 163.633 131.746 158.744 138.778 154.056C145.194 149.778 152.894 145.322 157 138.556C160.434 132.895 161.391 126.353 162.5 119.944C165.378 103.315 162.8 90.5792 149.889 78.5555C137.975 67.4605 118.637 59.9948 102.222 63.3333C88.2704 66.171 71.2373 79.3325 67.4444 93.5555C64.6025 104.213 68.0494 115.378 70.7778 125.444C73.9447 137.129 79.8506 147.513 83.3889 158.944C87.1589 171.124 90.6811 184.167 91.7778 196.889C92.5862 206.267 93.1236 216.531 88.8333 225.111C85 232.778 79.0417 243 69.3889 243C61.0033 243 54.5164 242.977 47.4444 238C38.0046 231.357 35.6856 218.673 36.0556 207.944C36.4015 197.913 39.4576 190.199 49.6667 187.444C55.1371 185.968 62.1062 187 67.6667 187C77.5406 187 84.9941 187.805 94.1111 191.778C111.117 199.188 126.102 210.143 142.611 218.5C153.37 223.946 164.709 225.808 176.222 229C187.714 232.186 199.026 234.217 211 232.333C227.408 229.752 248.315 219.4 253.833 202.5C261.514 178.978 230.713 167.318 214.111 160.167C194.677 151.795 173.438 145.053 156.444 132C147.988 125.505 143.834 117.389 144 106.778C144.192 94.5194 155.482 87.9513 166 84.0555C182.367 77.9938 198.85 72.7916 214.333 64.5556C228.23 57.1637 242.976 39.5832 240.889 22.8889C239.548 12.1587 226.296 7.40767 217.444 5C202.455 0.922786 180.049 0.0971947 167 9.66666C157.763 16.4406 153.52 25.2223 153.056 36.6111C152.516 49.8399 151.771 64.2425 158 76.3333C165.235 90.3783 172.203 104.582 181 117.778C189.914 131.149 200.364 144.068 207 158.833C214.692 175.948 233.516 209.783 220 228.556C204.272 250.4 178.866 252.149 155.444 260.778C141.309 265.986 126.503 265.152 112 268.778C104.32 270.698 104 277.394 104 284.056C104 299.751 122.906 311.719 136.111 315.944C149.672 320.284 166.389 321.01 180.556 319.778C191.236 318.849 204.138 316.182 211.667 307.667C216.678 301.998 219 295.921 219 288.389C219 277.462 215.681 273.579 207.667 265.667C190.798 249.011 166.503 240.332 147.111 227C139.97 222.091 137.042 210.038 138.222 201.778C139.618 192.01 149.409 192.13 157.056 190.556C168.894 188.118 180.58 188.57 192.556 187.778C204.319 187 215.846 185.506 227.556 184C233.597 183.223 239.569 182.261 245.333 180.222C250.496 178.396 254.596 174.493 259.444 172C266.3 168.474 273.835 163.108 277.389 156C281.954 146.869 281 135.876 281 126" stroke="#FD9800" stroke-width="3" stroke-linecap="round"/>
<path d="M2 31C7.04437 31 14.6478 29.2333 17.8889 34.5C19.9698 37.8815 22.2203 41.5479 23.2222 45.4444C25.7284 55.1907 26.2696 66.7514 23.5556 76.4444C19.9807 89.2116 21 102.214 21 115.444C21 128.11 28.2449 139.573 38.4444 147.222C57.7527 161.703 78.2571 164.779 102.111 165C106.284 165.039 110.895 166.499 115 165.556C123.37 163.633 131.746 158.744 138.778 154.056C145.194 149.778 152.894 145.322 157 138.556C160.434 132.895 161.391 126.353 162.5 119.944C165.378 103.315 162.8 90.5792 149.889 78.5555C137.975 67.4605 118.637 59.9948 102.222 63.3333C88.2704 66.171 71.2373 79.3325 67.4444 93.5555C64.6025 104.213 68.0494 115.378 70.7778 125.444C73.9447 137.129 79.8506 147.513 83.3889 158.944C87.1589 171.124 90.6811 184.167 91.7778 196.889C92.5862 206.267 93.1236 216.531 88.8333 225.111C85 232.778 79.0417 243 69.3889 243C61.0033 243 54.5164 242.977 47.4444 238C38.0046 231.357 35.6856 218.673 36.0556 207.944C36.4015 197.913 39.4576 190.199 49.6667 187.444C55.1371 185.968 62.1062 187 67.6667 187C77.5406 187 84.9941 187.805 94.1111 191.778C111.117 199.188 126.102 210.143 142.611 218.5C153.37 223.946 164.709 225.808 176.222 229C187.714 232.186 199.026 234.217 211 232.333C227.408 229.752 248.315 219.4 253.833 202.5C261.514 178.978 230.713 167.318 214.111 160.167C194.677 151.795 173.438 145.053 156.444 132C147.988 125.505 143.834 117.389 144 106.778C144.192 94.5194 155.482 87.9513 166 84.0555C182.367 77.9938 198.85 72.7916 214.333 64.5556C228.23 57.1637 242.976 39.5832 240.889 22.8889C239.548 12.1587 226.296 7.40767 217.444 5C202.455 0.922786 180.049 0.0971947 167 9.66666C157.763 16.4406 153.52 25.2223 153.056 36.6111C152.516 49.8399 151.771 64.2425 158 76.3333C165.235 90.3783 172.203 104.582 181 117.778C189.914 131.149 200.364 144.068 207 158.833C214.692 175.948 233.516 209.783 220 228.556C204.272 250.4 178.866 252.149 155.444 260.778C141.309 265.986 126.503 265.152 112 268.778C104.32 270.698 104 277.394 104 284.056C104 299.751 122.906 311.719 136.111 315.944C149.672 320.284 166.389 321.01 180.556 319.778C191.236 318.849 204.138 316.182 211.667 307.667C216.678 301.998 219 295.921 219 288.389C219 277.462 215.681 273.579 207.667 265.667C190.798 249.011 166.503 240.332 147.111 227C139.97 222.091 137.042 210.038 138.222 201.778C139.618 192.01 149.409 192.13 157.056 190.556C168.894 188.118 180.58 188.57 192.556 187.778C204.319 187 215.846 185.506 227.556 184C233.597 183.223 239.569 182.261 245.333 180.222C250.496 178.396 254.596 174.493 259.444 172C266.3 168.474 273.835 163.108 277.389 156C281.954 146.869 281 135.876 281 126" stroke="#FFB800" stroke-opacity="0.5" stroke-width="3" stroke-linecap="round"/>
<path d="M2 31C7.04437 31 14.6478 29.2333 17.8889 34.5C19.9698 37.8815 22.2203 41.5479 23.2222 45.4444C25.7284 55.1907 26.2696 66.7514 23.5556 76.4444C19.9807 89.2116 21 102.214 21 115.444C21 128.11 28.2449 139.573 38.4444 147.222C57.7527 161.703 78.2571 164.779 102.111 165C106.284 165.039 110.895 166.499 115 165.556C123.37 163.633 131.746 158.744 138.778 154.056C145.194 149.778 152.894 145.322 157 138.556C160.434 132.895 161.391 126.353 162.5 119.944C165.378 103.315 162.8 90.5792 149.889 78.5555C137.975 67.4605 118.637 59.9948 102.222 63.3333C88.2704 66.171 71.2373 79.3325 67.4444 93.5555C64.6025 104.213 68.0494 115.378 70.7778 125.444C73.9447 137.129 79.8506 147.513 83.3889 158.944C87.1589 171.124 90.6811 184.167 91.7778 196.889C92.5862 206.267 93.1236 216.531 88.8333 225.111C85 232.778 79.0417 243 69.3889 243C61.0033 243 54.5164 242.977 47.4444 238C38.0046 231.357 35.6856 218.673 36.0556 207.944C36.4015 197.913 39.4576 190.199 49.6667 187.444C55.1371 185.968 62.1062 187 67.6667 187C77.5406 187 84.9941 187.805 94.1111 191.778C111.117 199.188 126.102 210.143 142.611 218.5C153.37 223.946 164.709 225.808 176.222 229C187.714 232.186 199.026 234.217 211 232.333C227.408 229.752 248.315 219.4 253.833 202.5C261.514 178.978 230.713 167.318 214.111 160.167C194.677 151.795 173.438 145.053 156.444 132C147.988 125.505 143.834 117.389 144 106.778C144.192 94.5194 155.482 87.9513 166 84.0555C182.367 77.9938 198.85 72.7916 214.333 64.5556C228.23 57.1637 242.976 39.5832 240.889 22.8889C239.548 12.1587 226.296 7.40767 217.444 5C202.455 0.922786 180.049 0.0971947 167 9.66666C157.763 16.4406 153.52 25.2223 153.056 36.6111C152.516 49.8399 151.771 64.2425 158 76.3333C165.235 90.3783 172.203 104.582 181 117.778C189.914 131.149 200.364 144.068 207 158.833C214.692 175.948 233.516 209.783 220 228.556C204.272 250.4 178.866 252.149 155.444 260.778C141.309 265.986 126.503 265.152 112 268.778C104.32 270.698 104 277.394 104 284.056C104 299.751 122.906 311.719 136.111 315.944C149.672 320.284 166.389 321.01 180.556 319.778C191.236 318.849 204.138 316.182 211.667 307.667C216.678 301.998 219 295.921 219 288.389C219 277.462 215.681 273.579 207.667 265.667C190.798 249.011 166.503 240.332 147.111 227C139.97 222.091 137.042 210.038 138.222 201.778C139.618 192.01 149.409 192.13 157.056 190.556C168.894 188.118 180.58 188.57 192.556 187.778C204.319 187 215.846 185.506 227.556 184C233.597 183.223 239.569 182.261 245.333 180.222C250.496 178.396 254.596 174.493 259.444 172C266.3 168.474 273.835 163.108 277.389 156C281.954 146.869 281 135.876 281 126" stroke="#FFD66C" stroke-opacity="0.88" stroke-width="3" stroke-linecap="round"/>
<path d="M2 31C7.04437 31 14.6478 29.2333 17.8889 34.5C19.9698 37.8815 22.2203 41.5479 23.2222 45.4444C25.7284 55.1907 26.2696 66.7514 23.5556 76.4444C19.9807 89.2116 21 102.214 21 115.444C21 128.11 28.2449 139.573 38.4444 147.222C57.7527 161.703 78.2571 164.779 102.111 165C106.284 165.039 110.895 166.499 115 165.556C123.37 163.633 131.746 158.744 138.778 154.056C145.194 149.778 152.894 145.322 157 138.556C160.434 132.895 161.391 126.353 162.5 119.944C165.378 103.315 162.8 90.5792 149.889 78.5555C137.975 67.4605 118.637 59.9948 102.222 63.3333C88.2704 66.171 71.2373 79.3325 67.4444 93.5555C64.6025 104.213 68.0494 115.378 70.7778 125.444C73.9447 137.129 79.8506 147.513 83.3889 158.944C87.1589 171.124 90.6811 184.167 91.7778 196.889C92.5862 206.267 93.1236 216.531 88.8333 225.111C85 232.778 79.0417 243 69.3889 243C61.0033 243 54.5164 242.977 47.4444 238C38.0046 231.357 35.6856 218.673 36.0556 207.944C36.4015 197.913 39.4576 190.199 49.6667 187.444C55.1371 185.968 62.1062 187 67.6667 187C77.5406 187 84.9941 187.805 94.1111 191.778C111.117 199.188 126.102 210.143 142.611 218.5C153.37 223.946 164.709 225.808 176.222 229C187.714 232.186 199.026 234.217 211 232.333C227.408 229.752 248.315 219.4 253.833 202.5C261.514 178.978 230.713 167.318 214.111 160.167C194.677 151.795 173.438 145.053 156.444 132C147.988 125.505 143.834 117.389 144 106.778C144.192 94.5194 155.482 87.9513 166 84.0555C182.367 77.9938 198.85 72.7916 214.333 64.5556C228.23 57.1637 242.976 39.5832 240.889 22.8889C239.548 12.1587 226.296 7.40767 217.444 5C202.455 0.922786 180.049 0.0971947 167 9.66666C157.763 16.4406 153.52 25.2223 153.056 36.6111C152.516 49.8399 151.771 64.2425 158 76.3333C165.235 90.3783 172.203 104.582 181 117.778C189.914 131.149 200.364 144.068 207 158.833C214.692 175.948 233.516 209.783 220 228.556C204.272 250.4 178.866 252.149 155.444 260.778C141.309 265.986 126.503 265.152 112 268.778C104.32 270.698 104 277.394 104 284.056C104 299.751 122.906 311.719 136.111 315.944C149.672 320.284 166.389 321.01 180.556 319.778C191.236 318.849 204.138 316.182 211.667 307.667C216.678 301.998 219 295.921 219 288.389C219 277.462 215.681 273.579 207.667 265.667C190.798 249.011 166.503 240.332 147.111 227C139.97 222.091 137.042 210.038 138.222 201.778C139.618 192.01 149.409 192.13 157.056 190.556C168.894 188.118 180.58 188.57 192.556 187.778C204.319 187 215.846 185.506 227.556 184C233.597 183.223 239.569 182.261 245.333 180.222C250.496 178.396 254.596 174.493 259.444 172C266.3 168.474 273.835 163.108 277.389 156C281.954 146.869 281 135.876 281 126" stroke="#FAFF00" stroke-opacity="0.5" stroke-width="3" stroke-linecap="round"/>
<path d="M2 31C7.04437 31 14.6478 29.2333 17.8889 34.5C19.9698 37.8815 22.2203 41.5479 23.2222 45.4444C25.7284 55.1907 26.2696 66.7514 23.5556 76.4444C19.9807 89.2116 21 102.214 21 115.444C21 128.11 28.2449 139.573 38.4444 147.222C57.7527 161.703 78.2571 164.779 102.111 165C106.284 165.039 110.895 166.499 115 165.556C123.37 163.633 131.746 158.744 138.778 154.056C145.194 149.778 152.894 145.322 157 138.556C160.434 132.895 161.391 126.353 162.5 119.944C165.378 103.315 162.8 90.5792 149.889 78.5555C137.975 67.4605 118.637 59.9948 102.222 63.3333C88.2704 66.171 71.2373 79.3325 67.4444 93.5555C64.6025 104.213 68.0494 115.378 70.7778 125.444C73.9447 137.129 79.8506 147.513 83.3889 158.944C87.1589 171.124 90.6811 184.167 91.7778 196.889C92.5862 206.267 93.1236 216.531 88.8333 225.111C85 232.778 79.0417 243 69.3889 243C61.0033 243 54.5164 242.977 47.4444 238C38.0046 231.357 35.6856 218.673 36.0556 207.944C36.4015 197.913 39.4576 190.199 49.6667 187.444C55.1371 185.968 62.1062 187 67.6667 187C77.5406 187 84.9941 187.805 94.1111 191.778C111.117 199.188 126.102 210.143 142.611 218.5C153.37 223.946 164.709 225.808 176.222 229C187.714 232.186 199.026 234.217 211 232.333C227.408 229.752 248.315 219.4 253.833 202.5C261.514 178.978 230.713 167.318 214.111 160.167C194.677 151.795 173.438 145.053 156.444 132C147.988 125.505 143.834 117.389 144 106.778C144.192 94.5194 155.482 87.9513 166 84.0555C182.367 77.9938 198.85 72.7916 214.333 64.5556C228.23 57.1637 242.976 39.5832 240.889 22.8889C239.548 12.1587 226.296 7.40767 217.444 5C202.455 0.922786 180.049 0.0971947 167 9.66666C157.763 16.4406 153.52 25.2223 153.056 36.6111C152.516 49.8399 151.771 64.2425 158 76.3333C165.235 90.3783 172.203 104.582 181 117.778C189.914 131.149 200.364 144.068 207 158.833C214.692 175.948 233.516 209.783 220 228.556C204.272 250.4 178.866 252.149 155.444 260.778C141.309 265.986 126.503 265.152 112 268.778C104.32 270.698 104 277.394 104 284.056C104 299.751 122.906 311.719 136.111 315.944C149.672 320.284 166.389 321.01 180.556 319.778C191.236 318.849 204.138 316.182 211.667 307.667C216.678 301.998 219 295.921 219 288.389C219 277.462 215.681 273.579 207.667 265.667C190.798 249.011 166.503 240.332 147.111 227C139.97 222.091 137.042 210.038 138.222 201.778C139.618 192.01 149.409 192.13 157.056 190.556C168.894 188.118 180.58 188.57 192.556 187.778C204.319 187 215.846 185.506 227.556 184C233.597 183.223 239.569 182.261 245.333 180.222C250.496 178.396 254.596 174.493 259.444 172C266.3 168.474 273.835 163.108 277.389 156C281.954 146.869 281 135.876 281 126" stroke="#70FF00" stroke-width="3" stroke-linecap="round"/>
<path d="M2 31C7.04437 31 14.6478 29.2333 17.8889 34.5C19.9698 37.8815 22.2203 41.5479 23.2222 45.4444C25.7284 55.1907 26.2696 66.7514 23.5556 76.4444C19.9807 89.2116 21 102.214 21 115.444C21 128.11 28.2449 139.573 38.4444 147.222C57.7527 161.703 78.2571 164.779 102.111 165C106.284 165.039 110.895 166.499 115 165.556C123.37 163.633 131.746 158.744 138.778 154.056C145.194 149.778 152.894 145.322 157 138.556C160.434 132.895 161.391 126.353 162.5 119.944C165.378 103.315 162.8 90.5792 149.889 78.5555C137.975 67.4605 118.637 59.9948 102.222 63.3333C88.2704 66.171 71.2373 79.3325 67.4444 93.5555C64.6025 104.213 68.0494 115.378 70.7778 125.444C73.9447 137.129 79.8506 147.513 83.3889 158.944C87.1589 171.124 90.6811 184.167 91.7778 196.889C92.5862 206.267 93.1236 216.531 88.8333 225.111C85 232.778 79.0417 243 69.3889 243C61.0033 243 54.5164 242.977 47.4444 238C38.0046 231.357 35.6856 218.673 36.0556 207.944C36.4015 197.913 39.4576 190.199 49.6667 187.444C55.1371 185.968 62.1062 187 67.6667 187C77.5406 187 84.9941 187.805 94.1111 191.778C111.117 199.188 126.102 210.143 142.611 218.5C153.37 223.946 164.709 225.808 176.222 229C187.714 232.186 199.026 234.217 211 232.333C227.408 229.752 248.315 219.4 253.833 202.5C261.514 178.978 230.713 167.318 214.111 160.167C194.677 151.795 173.438 145.053 156.444 132C147.988 125.505 143.834 117.389 144 106.778C144.192 94.5194 155.482 87.9513 166 84.0555C182.367 77.9938 198.85 72.7916 214.333 64.5556C228.23 57.1637 242.976 39.5832 240.889 22.8889C239.548 12.1587 226.296 7.40767 217.444 5C202.455 0.922786 180.049 0.0971947 167 9.66666C157.763 16.4406 153.52 25.2223 153.056 36.6111C152.516 49.8399 151.771 64.2425 158 76.3333C165.235 90.3783 172.203 104.582 181 117.778C189.914 131.149 200.364 144.068 207 158.833C214.692 175.948 233.516 209.783 220 228.556C204.272 250.4 178.866 252.149 155.444 260.778C141.309 265.986 126.503 265.152 112 268.778C104.32 270.698 104 277.394 104 284.056C104 299.751 122.906 311.719 136.111 315.944C149.672 320.284 166.389 321.01 180.556 319.778C191.236 318.849 204.138 316.182 211.667 307.667C216.678 301.998 219 295.921 219 288.389C219 277.462 215.681 273.579 207.667 265.667C190.798 249.011 166.503 240.332 147.111 227C139.97 222.091 137.042 210.038 138.222 201.778C139.618 192.01 149.409 192.13 157.056 190.556C168.894 188.118 180.58 188.57 192.556 187.778C204.319 187 215.846 185.506 227.556 184C233.597 183.223 239.569 182.261 245.333 180.222C250.496 178.396 254.596 174.493 259.444 172C266.3 168.474 273.835 163.108 277.389 156C281.954 146.869 281 135.876 281 126" stroke="#009B06" stroke-opacity="0.5" stroke-width="3" stroke-linecap="round"/>
</svg>
